<svg width="251" height="251" viewBox="0 0 251 251" fill="none" xmlns="http://www.w3.org/2000/svg">
<path fill-rule="evenodd" clip-rule="evenodd" d="M122.543 5.168C116.967 23.943 119.411 79.03 125.765 77.807C133.803 76.259 133.462 0 125.417 0C124.668 0 123.401 2.279 122.543 5.168ZM62.667 16.667C57.186 22.148 79.194 65.618 94.876 80.288C100.407 85.461 101.139 85.742 103.058 83.431C104.14 82.126 103.979 80.564 102.102 74.181C95.222 50.773 68.106 11.227 62.667 16.667ZM180.946 18.845C170.5 25.53 155.301 48.932 149.474 67.302C139.069 100.108 166.025 83.786 183.518 46.689C190.361 32.177 192.668 20.811 189.429 17.571C187.253 15.396 186.054 15.576 180.946 18.845ZM17.465 62.057C12.022 70.863 63.757 104.21 80.696 102.814C84.023 102.539 84.54 102.151 84.82 99.714C85.91 90.22 38.565 61 22.091 61C19.906 61 17.824 61.476 17.465 62.057ZM214.364 63.859C194.987 70.604 170.953 87.456 166.96 97.097C163.171 106.243 175.337 106.525 194.856 97.744C207.55 92.033 217.867 85.156 226.684 76.529C237.339 66.105 237.65 60.987 227.628 61.013C224.611 61.021 219.15 62.193 214.364 63.859ZM197.509 106.506C193.664 107.307 187.703 109.348 184.264 111.042C166.494 119.79 168.916 134.116 189.5 142.015C197.734 145.175 218.486 146.013 228.047 143.572C245.812 139.035 254.464 129.504 249.399 120.047C246.945 115.466 239.546 110.561 231.152 107.952C222.372 105.222 206.868 104.556 197.509 106.506ZM24.404 114.949C10.972 116.501 0 120.995 0 124.946C0 129.366 6.916 132.808 20.376 135.086C31.461 136.961 58.851 135.771 67.374 133.043C83.151 127.993 81.799 121.1 64.196 116.835C55.328 114.686 35.013 113.723 24.404 114.949ZM170.329 145.458C153.889 152.609 177.342 181.584 207.086 190.87C215.532 193.507 222.706 194.298 226.91 193.055C244.47 187.867 231.711 164.464 203.888 150.826C190.573 144.299 177.718 142.243 170.329 145.458ZM65.5 148.381C52.607 152.6 36.641 161.714 27 170.356C21.209 175.547 16 182.744 16 185.554C16 194.993 39.098 190.058 60.895 175.962C70.84 169.53 81.309 160.236 83.603 155.8C88.388 146.55 80.708 143.403 65.5 148.381ZM94.234 166.498C85.741 170.189 71.375 188.342 65.189 203.2C57.958 220.57 57.224 230.909 63.001 234.001C66.378 235.808 71.426 233.468 78.57 226.786C93.015 213.273 105.907 186.95 104.773 173.282C104.116 165.35 101.197 163.472 94.234 166.498ZM148.656 166.133C146.2 167.561 144 173.043 144 177.738C144 183.234 147.512 195.081 151.473 202.947C156.323 212.577 160.574 218.648 167.005 225.125C176.494 234.682 184.681 237.41 189.479 232.612C192.676 229.414 193.439 224.532 192.038 216.228C187.702 190.518 160.581 159.201 148.656 166.133ZM122.234 173.228C116.429 176.026 111.07 194.397 111.07 211.5C111.07 232.236 117.925 251 125.5 251C133.049 251 140 232.065 140 211.5C140 194.083 134.543 175.935 128.474 173.17C125.457 171.795 125.2 171.798 122.234 173.228Z" fill="#F2B705"/>
</svg>
