<svg width="183" height="27" viewBox="0 0 183 27" fill="none" xmlns="http://www.w3.org/2000/svg">
<g clip-path="url(#clip0_2928_83001)">
<path d="M15.4223 27C12.0675 27 9.23838 26.4652 6.93504 25.4002C4.63171 24.3353 2.8992 22.8263 1.73752 20.8732C0.580841 18.9248 0 16.647 0 14.0444C0 11.9098 0.365529 9.98532 1.1066 8.27096C1.84267 6.55182 2.8992 5.07623 4.27619 3.84418C5.65319 2.60736 7.29056 1.65706 9.1833 0.998054C11.081 0.329501 13.1841 0 15.5075 0C17.1699 0 18.8573 0.162363 20.5598 0.487089C22.2622 0.811815 23.8245 1.31323 25.2466 1.99133L22.132 8.03696C20.8502 6.91953 19.6585 6.13636 18.5519 5.69703C17.4453 5.25292 16.2936 5.03325 15.0969 5.03325C13.6798 5.03325 12.4781 5.3341 11.4966 5.93102C10.5152 6.52794 9.76915 7.42572 9.26842 8.62434C8.76269 9.82296 8.51233 11.3033 8.51233 13.0702C8.51233 15.1236 8.81276 16.8237 9.41363 18.1608C10.0145 19.5027 10.8808 20.4959 12.0124 21.1454C13.144 21.7948 14.486 22.1196 16.0432 22.1196C16.9996 22.1196 17.8959 22.0097 18.7421 21.7901C19.5884 21.5704 20.3394 21.2648 20.9904 20.8732L18.9024 23.0985V17.0099H15.0568V12.6786H25.4468V25.0087C24.4905 25.4767 23.4339 25.8635 22.2773 26.1595C21.1156 26.4604 19.9539 26.6753 18.7772 26.8042C17.6055 26.9331 16.4889 27 15.4223 27Z" fill="#F2B705"/>
<path d="M40.2569 26.7274C38.1037 26.7274 36.206 26.3263 34.5686 25.5192C32.9313 24.7122 31.6594 23.6091 30.7431 22.2004C29.8268 20.7916 29.3711 19.1823 29.3711 17.3629C29.3711 15.4384 29.8418 13.7336 30.7831 12.2532C31.7245 10.7729 33.0514 9.60768 34.7739 8.76244C36.4914 7.9172 38.4843 7.49219 40.7476 7.49219C42.9007 7.49219 44.7984 7.88854 46.4358 8.68126C48.0732 9.47397 49.345 10.5866 50.2613 12.0192C51.1727 13.4519 51.6333 15.0994 51.6333 16.9761C51.6333 18.9292 51.1476 20.6293 50.1812 22.0858C49.2148 23.5422 47.8779 24.6788 46.1704 25.5001C44.4629 26.3167 42.4901 26.7274 40.2569 26.7274ZM40.6624 22.0046C41.3184 22.0046 41.8692 21.8422 42.3198 21.5175C42.7705 21.1928 43.106 20.6866 43.3213 19.9941C43.5416 19.3065 43.6468 18.4135 43.6468 17.3199C43.6468 16.15 43.5216 15.1853 43.2762 14.4308C43.0309 13.6763 42.6603 13.1128 42.1696 12.7356C41.6789 12.3583 41.063 12.1673 40.327 12.1673C39.671 12.1673 39.1252 12.3296 38.6896 12.6544C38.254 12.9791 37.9185 13.4853 37.6881 14.1777C37.4578 14.8654 37.3426 15.7584 37.3426 16.8519C37.3426 18.0219 37.4728 18.9913 37.7332 19.7601C37.9936 20.529 38.3691 21.0925 38.8598 21.4554C39.3556 21.8231 39.9564 22.0046 40.6624 22.0046Z" fill="#F2B705"/>
<path d="M55.8008 26.3397V7.88281H63.2065V26.3397H55.8008ZM58.2193 26.3397V21.0724H72.495V26.3397H58.2193Z" fill="#F2B705"/>
<path d="M83.5414 26.3397H76.1758V7.88281H84.0322C86.4056 7.88281 88.4736 8.24097 90.2311 8.95727C91.9887 9.67358 93.3557 10.7003 94.3221 12.0374C95.2885 13.3793 95.7742 14.9981 95.7742 16.894C95.7742 18.7946 95.2784 20.4516 94.282 21.8699C93.2856 23.2882 91.8735 24.3865 90.0459 25.1649C88.2182 25.9481 86.0501 26.3397 83.5414 26.3397ZM88.3284 17.2903C88.3284 16.3305 88.1732 15.4948 87.8577 14.7928C87.5422 14.0908 87.0666 13.556 86.4256 13.193C85.7847 12.8301 84.9585 12.6486 83.952 12.6486H83.0107V21.5834H84.2775C85.2039 21.5834 85.97 21.421 86.5708 21.0963C87.1717 20.7716 87.6123 20.2845 87.9028 19.635C88.1832 18.9808 88.3284 18.1976 88.3284 17.2903Z" fill="#F2B705"/>
<path d="M110.048 19.1591C109.312 19.1591 108.561 19.1352 107.8 19.0827C107.039 19.0302 106.218 18.9251 105.346 18.7723L105.592 13.7009C106.193 13.8059 106.879 13.8919 107.66 13.9539C108.436 14.0208 109.207 14.0495 109.973 14.0495C111.065 14.0495 111.951 13.9062 112.632 13.6197C113.313 13.3331 113.819 12.8795 114.144 12.2539C114.47 11.6283 114.635 10.8356 114.635 9.87577C114.635 8.54822 114.224 7.52628 113.408 6.81475C112.592 6.09845 111.405 5.74029 109.848 5.74029H108.251V26.3413H100.68V0.664062H110.744C113.198 0.664062 115.301 1.01744 117.043 1.71942C118.786 2.4214 120.123 3.39558 121.054 4.64673C121.981 5.8931 122.446 7.34004 122.446 8.978C122.446 10.487 122.126 11.8576 121.485 13.0944C120.844 14.3312 119.958 15.3961 118.826 16.2939C117.694 17.1917 116.377 17.8936 114.88 18.3998C113.378 18.906 111.766 19.1591 110.048 19.1591Z" fill="#8B0303"/>
<path d="M124.082 26.3397L130.957 7.88281H139.835L146.71 26.3397H139.099L134.272 9.24857H135.704L131.122 26.3397H124.082ZM128.624 22.5576L130.301 18.1881H139.955L141.958 22.5576H128.624Z" fill="#8B0303"/>
<path d="M149.895 26.3397V7.88281H159.754C162.538 7.88281 164.631 8.4081 166.033 9.46346C167.435 10.5188 168.141 11.8655 168.141 13.5034C168.141 14.7021 167.75 15.8243 166.974 16.8796C166.198 17.935 165.077 18.7898 163.619 19.4536C162.162 20.1173 160.395 20.4468 158.322 20.4468H153.66V16.1156H158.732C159.604 16.1156 160.285 15.9341 160.78 15.5712C161.271 15.2082 161.516 14.7259 161.516 14.129C161.516 13.556 161.291 13.0928 160.84 12.7441C160.39 12.3908 159.729 12.2189 158.858 12.2189H156.484V26.3444H149.895V26.3397ZM166.629 26.7694C165.592 26.7694 164.721 26.6405 164.01 26.3779C163.299 26.12 162.658 25.6902 162.087 25.0885C161.516 24.4916 160.941 23.6845 160.37 22.6674L158.487 19.3103L163.519 17.8681L165.933 20.7572C166.393 21.3303 166.799 21.7792 167.14 22.1039C167.48 22.4286 167.78 22.6578 168.041 22.7868C168.301 22.9157 168.567 22.9826 168.837 22.9826C169.027 22.9826 169.213 22.9682 169.388 22.9444C169.563 22.9205 169.733 22.8918 169.899 22.868L170.84 25.9481C170.214 26.2346 169.533 26.4399 168.797 26.5736C168.061 26.7026 167.34 26.7694 166.629 26.7694Z" fill="#8B0303"/>
<path d="M177.575 14.0555L173.789 10.4453V26.3378H181.355V10.4453L177.575 14.0555Z" fill="#8B0303"/>
<path d="M177.573 0.662886L172.148 5.83594L177.573 11.009L182.997 5.83595L177.573 0.662886Z" fill="#F2B705"/>
</g>
<defs>
<clipPath id="clip0_2928_83001">
<rect width="183" height="27" fill="white"/>
</clipPath>
</defs>
</svg>
